<svg width="24" height="24" viewBox="0 0 24 24" fill="none" xmlns="http://www.w3.org/2000/svg">
<path d="M18.2074 15.498H19.7611V17.0527H4.22363V15.498H5.77738V10.0566C5.77738 8.9269 6.06224 7.88008 6.63195 6.91617C7.18094 5.98336 7.92156 5.24229 8.85381 4.69297C9.81713 4.12292 10.8633 3.83789 11.9924 3.83789C13.1214 3.83789 14.1676 4.12292 15.131 4.69297C16.0632 5.24229 16.8038 5.98336 17.3528 6.91617C17.9225 7.88008 18.2074 8.9269 18.2074 10.0566V15.498ZM16.6536 15.498V10.0566C16.6536 9.21711 16.4413 8.43458 16.0166 7.70906C15.6023 7.00427 15.0429 6.44458 14.3385 6.03C13.6135 5.60505 12.8314 5.39258 11.9924 5.39258C11.1534 5.39258 10.3713 5.60505 9.64622 6.03C8.94185 6.44458 8.3825 7.00427 7.96817 7.70906C7.54348 8.43458 7.33113 9.21711 7.33113 10.0566V15.498H16.6536ZM9.66176 18.6074H14.323V20.1621H9.66176V18.6074Z" fill="#6B7280"/>
</svg>
