<svg width="30" height="28" viewBox="0 0 30 28" fill="none" xmlns="http://www.w3.org/2000/svg">
<path d="M11.921 12.46C12.4653 13.4244 13.13 14.2994 13.9153 15.085C14.7006 15.8706 15.5753 16.5356 16.5394 17.08L17.5657 15.6333C17.7367 15.3844 17.9661 15.2289 18.2537 15.1667C18.5414 15.1044 18.8174 15.1433 19.0818 15.2833C20.7456 16.2011 22.5261 16.73 24.4232 16.87C24.7187 16.9011 24.9713 17.0256 25.1813 17.2433C25.3912 17.4611 25.4962 17.7256 25.4962 18.0367V23.24C25.4962 23.5356 25.3951 23.7961 25.1929 24.0217C24.9908 24.2472 24.742 24.3756 24.4465 24.4067C23.8245 24.4689 23.2025 24.5 22.5805 24.5C20.1236 24.5 17.7756 24.0256 15.5364 23.0767C13.3749 22.1589 11.4623 20.8678 9.79844 19.2033C8.13459 17.5389 6.84394 15.6256 5.92649 13.4633C4.97794 11.2233 4.50366 8.87444 4.50366 6.41667C4.50366 5.79445 4.53476 5.17222 4.59696 4.55C4.62806 4.25444 4.75635 4.00556 4.98182 3.80333C5.2073 3.60111 5.46776 3.5 5.76321 3.5H10.9647C11.2757 3.5 11.54 3.605 11.7577 3.815C11.9754 4.025 12.0998 4.27778 12.1309 4.57333C12.2709 6.47111 12.7996 8.25222 13.717 9.91667C13.857 10.1811 13.8959 10.4572 13.8337 10.745C13.7715 11.0328 13.616 11.2622 13.3672 11.4333L11.921 12.46ZM8.98206 11.69L11.1979 10.1033C10.5759 8.75 10.1483 7.32667 9.91506 5.83333H6.83616V6.41667C6.83616 8.54778 7.24824 10.5933 8.07239 12.5533C8.86544 14.4356 9.98892 16.1039 11.4428 17.5583C12.8968 19.0128 14.5645 20.1367 16.4461 20.93C18.4054 21.7544 20.4502 22.1667 22.5805 22.1667H23.1637V19.0867C21.6709 18.8533 20.248 18.4256 18.8952 17.8033L17.3091 20.02C16.6715 19.7711 16.0495 19.4756 15.4431 19.1333L15.3731 19.11C14.238 18.4567 13.2039 17.6633 12.2709 16.73C11.3379 15.7967 10.5448 14.7622 9.89174 13.6267L9.86841 13.5567C9.52631 12.95 9.23086 12.3278 8.98206 11.69Z" fill="white"/>
</svg>
