<svg width="36" height="36" viewBox="0 0 36 36" fill="none" xmlns="http://www.w3.org/2000/svg">
<path d="M18.1484 35.5C15.7684 35.5 13.4934 35.045 11.3234 34.135C9.24677 33.2483 7.3976 31.9942 5.77594 30.3725C4.15427 28.7508 2.9001 26.9017 2.01344 24.825C1.10344 22.655 0.648438 20.38 0.648438 18C0.648438 15.62 1.10344 13.345 2.01344 11.175C2.9001 9.09833 4.15427 7.24917 5.77594 5.6275C7.3976 4.00583 9.24677 2.75167 11.3234 1.865C13.4934 0.954998 15.7684 0.5 18.1484 0.5C20.5284 0.5 22.8034 0.954998 24.9734 1.865C27.0501 2.75167 28.8993 4.00583 30.5209 5.6275C32.1426 7.24917 33.3968 9.09833 34.2834 11.175C35.1934 13.345 35.6484 15.62 35.6484 18C35.6484 20.38 35.1934 22.655 34.2834 24.825C33.3968 26.9017 32.1426 28.7508 30.5209 30.3725C28.8993 31.9942 27.0501 33.2483 24.9734 34.135C22.8034 35.045 20.5284 35.5 18.1484 35.5ZM18.1484 32C20.6918 32 23.0484 31.3583 25.2184 30.075C27.3184 28.8383 28.9868 27.17 30.2234 25.07C31.5068 22.9 32.1484 20.5433 32.1484 18C32.1484 15.4567 31.5068 13.1 30.2234 10.93C28.9868 8.83 27.3184 7.16167 25.2184 5.925C23.0484 4.64167 20.6918 4 18.1484 4C15.6051 4 13.2484 4.64167 11.0784 5.925C8.97844 7.16167 7.3101 8.83 6.07344 10.93C4.7901 13.1 4.14844 15.4567 4.14844 18C4.14844 20.5433 4.7901 22.9 6.07344 25.07C7.3101 27.17 8.97844 28.8383 11.0784 30.075C13.2484 31.3583 15.6051 32 18.1484 32Z" fill="#EF4444"/>
<line y1="-1.5" x2="8" y2="-1.5" transform="matrix(0.965926 0.258819 0.258819 -0.965926 9.17529 12.7942)" stroke="#EF4444" stroke-width="3"/>
<line y1="-1.5" x2="8" y2="-1.5" transform="matrix(0.965926 -0.258819 -0.258819 -0.965926 20.1777 14.865)" stroke="#EF4444" stroke-width="3"/>
<line x1="12" y1="25.5" x2="25" y2="25.5" stroke="#EF4444" stroke-width="3"/>
</svg>
