<svg width="36" height="36" viewBox="0 0 36 36" fill="none" xmlns="http://www.w3.org/2000/svg">
<path d="M18.1484 35.5C15.7684 35.5 13.4934 35.045 11.3234 34.135C9.24677 33.2483 7.3976 31.9942 5.77594 30.3725C4.15427 28.7508 2.9001 26.9017 2.01344 24.825C1.10344 22.655 0.648438 20.38 0.648438 18C0.648438 15.62 1.10344 13.345 2.01344 11.175C2.9001 9.09833 4.15427 7.24917 5.77594 5.6275C7.3976 4.00583 9.24677 2.75167 11.3234 1.865C13.4934 0.954998 15.7684 0.5 18.1484 0.5C20.5284 0.5 22.8034 0.954998 24.9734 1.865C27.0501 2.75167 28.8993 4.00583 30.5209 5.6275C32.1426 7.24917 33.3968 9.09833 34.2834 11.175C35.1934 13.345 35.6484 15.62 35.6484 18C35.6484 20.38 35.1934 22.655 34.2834 24.825C33.3968 26.9017 32.1426 28.7508 30.5209 30.3725C28.8993 31.9942 27.0501 33.2483 24.9734 34.135C22.8034 35.045 20.5284 35.5 18.1484 35.5ZM18.1484 32C20.6918 32 23.0484 31.3583 25.2184 30.075C27.3184 28.8383 28.9868 27.17 30.2234 25.07C31.5068 22.9 32.1484 20.5433 32.1484 18C32.1484 15.4567 31.5068 13.1 30.2234 10.93C28.9868 8.83 27.3184 7.16167 25.2184 5.925C23.0484 4.64167 20.6918 4 18.1484 4C15.6051 4 13.2484 4.64167 11.0784 5.925C8.97844 7.16167 7.3101 8.83 6.07344 10.93C4.7901 13.1 4.14844 15.4567 4.14844 18C4.14844 20.5433 4.7901 22.9 6.07344 25.07C7.3101 27.17 8.97844 28.8383 11.0784 30.075C13.2484 31.3583 15.6051 32 18.1484 32ZM9.39844 26.75C9.39844 25.1633 9.78927 23.6992 10.5709 22.3575C11.3526 21.0158 12.4143 19.9542 13.7559 19.1725C15.0976 18.3908 16.5618 18 18.1484 18C19.7351 18 21.1993 18.3908 22.5409 19.1725C23.8826 19.9542 24.9443 21.0158 25.7259 22.3575C26.5076 23.6992 26.8984 25.1633 26.8984 26.75H23.3984C23.3984 25.7933 23.1651 24.9125 22.6984 24.1075C22.2318 23.3025 21.5959 22.6667 20.7909 22.2C19.9859 21.7333 19.1051 21.5 18.1484 21.5C17.1918 21.5 16.3109 21.7333 15.5059 22.2C14.7009 22.6667 14.0651 23.3025 13.5984 24.1075C13.1318 24.9125 12.8984 25.7933 12.8984 26.75H9.39844ZM11.1484 16.25C10.4251 16.25 9.80677 15.9933 9.29344 15.48C8.7801 14.9667 8.52344 14.3483 8.52344 13.625C8.52344 12.9017 8.7801 12.2833 9.29344 11.77C9.80677 11.2567 10.4251 11 11.1484 11C11.8718 11 12.4901 11.2567 13.0034 11.77C13.5168 12.2833 13.7734 12.9017 13.7734 13.625C13.7734 14.3483 13.5168 14.9667 13.0034 15.48C12.4901 15.9933 11.8718 16.25 11.1484 16.25ZM25.1484 16.25C24.4251 16.25 23.8068 15.9933 23.2934 15.48C22.7801 14.9667 22.5234 14.3483 22.5234 13.625C22.5234 12.9017 22.7801 12.2833 23.2934 11.77C23.8068 11.2567 24.4251 11 25.1484 11C25.8718 11 26.4901 11.2567 27.0034 11.77C27.5168 12.2833 27.7734 12.9017 27.7734 13.625C27.7734 14.3483 27.5168 14.9667 27.0034 15.48C26.4901 15.9933 25.8718 16.25 25.1484 16.25Z" fill="#A855F7"/>
</svg>
