<svg width="36" height="36" viewBox="0 0 36 36" fill="none" xmlns="http://www.w3.org/2000/svg">
<path d="M17.8203 0.5C20.2003 0.5 22.4753 0.954998 24.6453 1.865C26.722 2.75167 28.5711 4.00583 30.1928 5.6275C31.8145 7.24917 33.0686 9.09833 33.9553 11.175C34.8653 13.345 35.3203 15.62 35.3203 18C35.3203 20.38 34.8653 22.655 33.9553 24.825C33.0686 26.9017 31.8145 28.7508 30.1928 30.3725C28.5711 31.9942 26.722 33.2483 24.6453 34.135C22.4753 35.045 20.2003 35.5 17.8203 35.5C15.4403 35.5 13.1653 35.045 10.9953 34.135C8.91865 33.2483 7.06948 31.9942 5.44781 30.3725C3.82615 28.7508 2.57198 26.9017 1.68531 24.825C0.775313 22.655 0.320312 20.38 0.320312 18C0.320312 15.62 0.775313 13.345 1.68531 11.175C2.57198 9.09833 3.82615 7.24917 5.44781 5.6275C7.06948 4.00583 8.91865 2.75167 10.9953 1.865C13.1653 0.954998 15.4403 0.5 17.8203 0.5ZM17.8203 4C15.277 4 12.9203 4.64167 10.7503 5.925C8.65031 7.16167 6.98198 8.83 5.74531 10.93C4.46198 13.1 3.82031 15.4567 3.82031 18C3.82031 20.5433 4.46198 22.9 5.74531 25.07C6.98198 27.17 8.65031 28.8383 10.7503 30.075C12.9203 31.3583 15.277 32 17.8203 32C20.3636 32 22.7203 31.3583 24.8903 30.075C26.9903 28.8383 28.6586 27.17 29.8953 25.07C31.1786 22.9 31.8203 20.5433 31.8203 18C31.8203 15.4567 31.1786 13.1 29.8953 10.93C28.6586 8.83 26.9903 7.16167 24.8903 5.925C22.7203 4.64167 20.3636 4 17.8203 4ZM17.8203 16.25C21.3203 16.25 24.237 16.8333 26.5703 18C26.5703 19.5867 26.1795 21.0508 25.3978 22.3925C24.6161 23.7342 23.5545 24.7958 22.2128 25.5775C20.8711 26.3592 19.407 26.75 17.8203 26.75C16.2336 26.75 14.7695 26.3592 13.4278 25.5775C12.0861 24.7958 11.0245 23.7342 10.2428 22.3925C9.46115 21.0508 9.07031 19.5867 9.07031 18C11.4036 16.8333 14.3203 16.25 17.8203 16.25ZM11.6953 9.25C12.7453 9.25 13.6728 9.5825 14.4778 10.2475C15.2828 10.9125 15.7903 11.7467 16.0003 12.75H7.39031C7.60031 11.7467 8.10781 10.9125 8.91281 10.2475C9.71781 9.5825 10.6453 9.25 11.6953 9.25ZM23.9453 9.25C24.9953 9.25 25.9228 9.5825 26.7278 10.2475C27.5328 10.9125 28.0403 11.7467 28.2503 12.75H19.6403C19.8503 11.7467 20.3578 10.9125 21.1628 10.2475C21.9678 9.5825 22.8953 9.25 23.9453 9.25Z" fill="#F97316"/>
</svg>
