<svg width="36" height="36" viewBox="0 0 36 36" fill="none" xmlns="http://www.w3.org/2000/svg">
<path d="M18.4766 35.5C16.0966 35.5 13.8216 35.045 11.6516 34.135C9.5749 33.2483 7.72573 31.9942 6.10406 30.3725C4.4824 28.7508 3.22823 26.9017 2.34156 24.825C1.43156 22.655 0.976562 20.38 0.976562 18C0.976562 15.62 1.43156 13.345 2.34156 11.175C3.22823 9.09833 4.4824 7.24917 6.10406 5.6275C7.72573 4.00583 9.5749 2.75167 11.6516 1.865C13.8216 0.954998 16.0966 0.5 18.4766 0.5C20.8566 0.5 23.1316 0.954998 25.3016 1.865C27.3782 2.75167 29.2274 4.00583 30.8491 5.6275C32.4707 7.24917 33.7249 9.09833 34.6116 11.175C35.5216 13.345 35.9766 15.62 35.9766 18C35.9766 20.38 35.5216 22.655 34.6116 24.825C33.7249 26.9017 32.4707 28.7508 30.8491 30.3725C29.2274 31.9942 27.3782 33.2483 25.3016 34.135C23.1316 35.045 20.8566 35.5 18.4766 35.5ZM18.4766 32C21.0199 32 23.3766 31.3583 25.5466 30.075C27.6466 28.8383 29.3149 27.17 30.5516 25.07C31.8349 22.9 32.4766 20.5433 32.4766 18C32.4766 15.4567 31.8349 13.1 30.5516 10.93C29.3149 8.83 27.6466 7.16167 25.5466 5.925C23.3766 4.64167 21.0199 4 18.4766 4C15.9332 4 13.5766 4.64167 11.4066 5.925C9.30656 7.16167 7.63823 8.83 6.40156 10.93C5.11823 13.1 4.47656 15.4567 4.47656 18C4.47656 20.5433 5.11823 22.9 6.40156 25.07C7.63823 27.17 9.30656 28.8383 11.4066 30.075C13.5766 31.3583 15.9332 32 18.4766 32ZM11.4766 21.5H25.4766V25H11.4766V21.5ZM11.4766 16.25C10.7532 16.25 10.1349 15.9933 9.62156 15.48C9.10823 14.9667 8.85156 14.3483 8.85156 13.625C8.85156 12.9017 9.10823 12.2833 9.62156 11.77C10.1349 11.2567 10.7532 11 11.4766 11C12.1999 11 12.8182 11.2567 13.3316 11.77C13.8449 12.2833 14.1016 12.9017 14.1016 13.625C14.1016 14.3483 13.8449 14.9667 13.3316 15.48C12.8182 15.9933 12.1999 16.25 11.4766 16.25ZM25.4766 16.25C24.7532 16.25 24.1349 15.9933 23.6216 15.48C23.1082 14.9667 22.8516 14.3483 22.8516 13.625C22.8516 12.9017 23.1082 12.2833 23.6216 11.77C24.1349 11.2567 24.7532 11 25.4766 11C26.1999 11 26.8182 11.2567 27.3316 11.77C27.8449 12.2833 28.1016 12.9017 28.1016 13.625C28.1016 14.3483 27.8449 14.9667 27.3316 15.48C26.8182 15.9933 26.1999 16.25 25.4766 16.25Z" fill="#60A5FA"/>
</svg>
