<svg width="36" height="36" viewBox="0 0 36 36" fill="none" xmlns="http://www.w3.org/2000/svg">
<path d="M18.4766 0.5C20.8566 0.5 23.1316 0.954998 25.3016 1.865C27.3782 2.75167 29.2274 4.00583 30.8491 5.6275C32.4707 7.24917 33.7249 9.09833 34.6116 11.175C35.5216 13.345 35.9766 15.62 35.9766 18C35.9766 19.26 35.8482 20.4967 35.5916 21.71L32.4766 18.595V18C32.4766 15.4567 31.8349 13.1 30.5516 10.93C29.3149 8.83 27.6466 7.16167 25.5466 5.925C23.3766 4.64167 21.0199 4 18.4766 4C15.9332 4 13.5766 4.64167 11.4066 5.925C9.30656 7.16167 7.63823 8.83 6.40156 10.93C5.11823 13.1 4.47656 15.4567 4.47656 18C4.47656 20.5433 5.11823 22.9 6.40156 25.07C7.63823 27.17 9.30656 28.8383 11.4066 30.075C13.5766 31.3583 15.9332 32 18.4766 32C20.7166 32 22.8282 31.4983 24.8116 30.495C25.0916 30.9383 25.4182 31.335 25.7916 31.685C26.3049 32.2217 26.8882 32.6533 27.5416 32.98C26.1882 33.7967 24.7474 34.4208 23.2191 34.8525C21.6907 35.2842 20.1099 35.5 18.4766 35.5C16.0966 35.5 13.8216 35.045 11.6516 34.135C9.5749 33.2483 7.72573 31.9942 6.10406 30.3725C4.4824 28.7508 3.22823 26.9017 2.34156 24.825C1.43156 22.655 0.976562 20.38 0.976562 18C0.976562 15.62 1.43156 13.345 2.34156 11.175C3.22823 9.09833 4.4824 7.24917 6.10406 5.6275C7.72573 4.00583 9.5749 2.75167 11.6516 1.865C13.8216 0.954998 16.0966 0.5 18.4766 0.5ZM30.7266 21.815L33.2116 24.265C33.6549 24.7083 33.9524 25.2333 34.1041 25.84C34.2557 26.4467 34.2557 27.0533 34.1041 27.66C33.9524 28.2667 33.6549 28.7917 33.2116 29.235C32.7682 29.6783 32.2432 29.9758 31.6366 30.1275C31.0299 30.2792 30.4232 30.2792 29.8166 30.1275C29.2099 29.9758 28.6849 29.6783 28.2416 29.235C27.5882 28.5817 27.2499 27.7942 27.2266 26.8725C27.2032 25.9508 27.4832 25.1517 28.0666 24.475L30.7266 21.815ZM18.4766 23.25C19.7366 23.25 20.9266 23.5008 22.0466 24.0025C23.1666 24.5042 24.1349 25.21 24.9516 26.12L23.3066 27.625C21.8366 27.0417 20.2266 26.75 18.4766 26.75C16.7266 26.75 15.1166 27.0417 13.6466 27.625L12.0016 26.12C12.8182 25.21 13.7866 24.5042 14.9066 24.0025C16.0266 23.5008 17.2166 23.25 18.4766 23.25ZM12.3516 14.5C13.0749 14.5 13.6932 14.7567 14.2066 15.27C14.7199 15.7833 14.9766 16.4017 14.9766 17.125C14.9766 17.8483 14.7199 18.4667 14.2066 18.98C13.6932 19.4933 13.0749 19.75 12.3516 19.75C11.6282 19.75 11.0099 19.4933 10.4966 18.98C9.98323 18.4667 9.72656 17.8483 9.72656 17.125C9.72656 16.4017 9.98323 15.7833 10.4966 15.27C11.0099 14.7567 11.6282 14.5 12.3516 14.5ZM24.6016 14.5C25.3249 14.5 25.9432 14.7567 26.4566 15.27C26.9699 15.7833 27.2266 16.4017 27.2266 17.125C27.2266 17.8483 26.9699 18.4667 26.4566 18.98C25.9432 19.4933 25.3249 19.75 24.6016 19.75C23.8782 19.75 23.2599 19.4933 22.7466 18.98C22.2332 18.4667 21.9766 17.8483 21.9766 17.125C21.9766 16.4017 22.2332 15.7833 22.7466 15.27C23.2599 14.7567 23.8782 14.5 24.6016 14.5Z" fill="#6B7280"/>
</svg>
