<svg width="36" height="36" viewBox="0 0 36 36" fill="none" xmlns="http://www.w3.org/2000/svg">
<path d="M17.8203 35.5C15.4403 35.5 13.1653 35.045 10.9953 34.135C8.91865 33.2483 7.06948 31.9942 5.44781 30.3725C3.82615 28.7508 2.57198 26.9017 1.68531 24.825C0.775313 22.655 0.320312 20.38 0.320312 18C0.320312 15.62 0.775313 13.345 1.68531 11.175C2.57198 9.09833 3.82615 7.24917 5.44781 5.6275C7.06948 4.00583 8.91865 2.75167 10.9953 1.865C13.1653 0.954998 15.4403 0.5 17.8203 0.5C20.2003 0.5 22.4753 0.954998 24.6453 1.865C26.722 2.75167 28.5711 4.00583 30.1928 5.6275C31.8145 7.24917 33.0686 9.09833 33.9553 11.175C34.8653 13.345 35.3203 15.62 35.3203 18C35.3203 20.38 34.8653 22.655 33.9553 24.825C33.0686 26.9017 31.8145 28.7508 30.1928 30.3725C28.5711 31.9942 26.722 33.2483 24.6453 34.135C22.4753 35.045 20.2003 35.5 17.8203 35.5ZM17.8203 32C20.3636 32 22.7203 31.3583 24.8903 30.075C26.9903 28.8383 28.6586 27.17 29.8953 25.07C31.1786 22.9 31.8203 20.5433 31.8203 18C31.8203 15.4567 31.1786 13.1 29.8953 10.93C28.6586 8.83 26.9903 7.16167 24.8903 5.925C22.7203 4.64167 20.3636 4 17.8203 4C15.277 4 12.9203 4.64167 10.7503 5.925C8.65031 7.16167 6.98198 8.83 5.74531 10.93C4.46198 13.1 3.82031 15.4567 3.82031 18C3.82031 20.5433 4.46198 22.9 5.74531 25.07C6.98198 27.17 8.65031 28.8383 10.7503 30.075C12.9203 31.3583 15.277 32 17.8203 32ZM9.07031 19.75H12.5703C12.5703 20.7067 12.8036 21.5875 13.2703 22.3925C13.737 23.1975 14.3728 23.8333 15.1778 24.3C15.9828 24.7667 16.8636 25 17.8203 25C18.777 25 19.6578 24.7667 20.4628 24.3C21.2678 23.8333 21.9036 23.1975 22.3703 22.3925C22.837 21.5875 23.0703 20.7067 23.0703 19.75H26.5703C26.5703 21.3367 26.1795 22.8008 25.3978 24.1425C24.6161 25.4842 23.5545 26.5458 22.2128 27.3275C20.8711 28.1092 19.407 28.5 17.8203 28.5C16.2336 28.5 14.7695 28.1092 13.4278 27.3275C12.0861 26.5458 11.0245 25.4842 10.2428 24.1425C9.46115 22.8008 9.07031 21.3367 9.07031 19.75ZM10.8203 16.25C10.097 16.25 9.47865 15.9933 8.96531 15.48C8.45198 14.9667 8.19531 14.3483 8.19531 13.625C8.19531 12.9017 8.45198 12.2833 8.96531 11.77C9.47865 11.2567 10.097 11 10.8203 11C11.5436 11 12.162 11.2567 12.6753 11.77C13.1886 12.2833 13.4453 12.9017 13.4453 13.625C13.4453 14.3483 13.1886 14.9667 12.6753 15.48C12.162 15.9933 11.5436 16.25 10.8203 16.25ZM24.8203 16.25C24.097 16.25 23.4786 15.9933 22.9653 15.48C22.452 14.9667 22.1953 14.3483 22.1953 13.625C22.1953 12.9017 22.452 12.2833 22.9653 11.77C23.4786 11.2567 24.097 11 24.8203 11C25.5436 11 26.162 11.2567 26.6753 11.77C27.1886 12.2833 27.4453 12.9017 27.4453 13.625C27.4453 14.3483 27.1886 14.9667 26.6753 15.48C26.162 15.9933 25.5436 16.25 24.8203 16.25Z" fill="#EAB308"/>
</svg>
