<svg width="16" height="15" viewBox="0 0 16 15" fill="none" xmlns="http://www.w3.org/2000/svg">
<path d="M11.491 5.88994C11.491 5.25994 11.3316 4.67272 11.0128 4.12828C10.7018 3.59939 10.2819 3.17939 9.75324 2.86828C9.20899 2.54939 8.62198 2.38995 7.99221 2.38995C7.36243 2.38995 6.77542 2.54939 6.23117 2.86828C5.70247 3.17939 5.28262 3.59939 4.97162 4.12828C4.65284 4.67272 4.49346 5.25994 4.49346 5.88994V10.5566H11.491V5.88994ZM12.6572 10.9533L12.8905 11.2566C12.9371 11.3266 12.9546 11.4005 12.9429 11.4783C12.9313 11.5561 12.8963 11.6163 12.838 11.6591C12.7797 11.7019 12.7194 11.7272 12.6572 11.7349H3.32721C3.24946 11.7349 3.18143 11.7058 3.12311 11.6474C3.0648 11.5891 3.03564 11.523 3.03564 11.4491C3.03564 11.3752 3.05508 11.3111 3.09396 11.2566L3.32721 10.9533V5.88994C3.32721 5.04994 3.54102 4.26828 3.96864 3.54494C4.38072 2.83717 4.93663 2.27717 5.63638 1.86494C6.35946 1.44494 7.14473 1.233 7.99221 1.22911C8.83968 1.22522 9.62496 1.43717 10.348 1.86494C11.0478 2.27717 11.6037 2.83717 12.0158 3.54494C12.4434 4.26828 12.6572 5.04994 12.6572 5.88994V10.9533ZM6.53439 12.3066H9.45002C9.45002 12.5711 9.38393 12.8161 9.25176 13.0416C9.11958 13.2672 8.9427 13.4461 8.72111 13.5783C8.49953 13.7105 8.25656 13.7766 7.99221 13.7766C7.72786 13.7766 7.48489 13.7105 7.2633 13.5783C7.04171 13.4461 6.86483 13.2672 6.73266 13.0416C6.60048 12.8161 6.53439 12.5749 6.53439 12.3183V12.3066Z" fill="#FF9B9B"/>
</svg>
