<svg width="20" height="20" viewBox="0 0 20 20" fill="none" xmlns="http://www.w3.org/2000/svg">
<path d="M10.769 13.8401V15.4414H14.6534V16.9961H5.33091V15.4414H9.21528V13.8401C8.20017 13.7157 7.27827 13.3633 6.44961 12.7829C5.62094 12.2025 4.97355 11.4718 4.50742 10.5908C4.02058 9.6787 3.77716 8.70443 3.77716 7.66797V3.00391H16.2072V7.66797C16.2072 8.70443 15.9637 9.6787 15.4769 10.5908C15.0108 11.4718 14.3634 12.2025 13.5347 12.7829C12.706 13.3633 11.7841 13.7157 10.769 13.8401ZM5.33091 4.55859V7.66797C5.33091 8.5075 5.54325 9.29003 5.96795 10.0155C6.38228 10.7203 6.94163 11.28 7.646 11.6946C8.37108 12.1196 9.15313 12.332 9.99216 12.332C10.8312 12.332 11.6132 12.1196 12.3383 11.6946C13.0427 11.28 13.602 10.7203 14.0164 10.0155C14.4411 9.29003 14.6534 8.5075 14.6534 7.66797V4.55859H5.33091ZM1.44653 4.55859H3.00028V7.66797H1.44653V4.55859ZM16.984 4.55859H18.5378V7.66797H16.984V4.55859Z" fill="#FF9B9B"/>
</svg>
