<svg width="20" height="20" viewBox="0 0 20 20" fill="none" xmlns="http://www.w3.org/2000/svg">
<path d="M10.0061 2.60742C10.1511 2.60742 10.2858 2.64629 10.4101 2.72402C10.5344 2.80176 10.6328 2.90799 10.7053 3.04273L11.2646 4.16211H15.9259C16.1434 4.16211 16.3273 4.23725 16.4775 4.38754C16.6276 4.53783 16.7027 4.7218 16.7027 4.93945V13.4902C16.7027 13.7079 16.6276 13.8919 16.4775 14.0421C16.3273 14.1924 16.1434 14.2676 15.9259 14.2676H10.9694C10.8244 14.2676 10.6897 14.2287 10.5654 14.151C10.4411 14.0732 10.3427 13.967 10.2702 13.8323L9.71087 12.7129H4.27274V17.377H2.71899V2.60742H10.0061ZM9.52442 4.16211H4.27274V11.1582H10.6742L11.4511 12.7129H15.149V5.7168H10.3013L9.52442 4.16211Z" fill="#FF9B9B"/>
</svg>
