<svg width="21" height="20" viewBox="0 0 21 20" fill="none" xmlns="http://www.w3.org/2000/svg">
<path d="M14.3765 2.80176C15.1534 2.80176 15.8681 3.00387 16.5207 3.40809C17.1733 3.8123 17.686 4.36163 18.0589 5.05606C18.4525 5.78158 18.6493 6.58483 18.6493 7.46582C18.6493 8.66811 18.3697 9.82376 17.8103 10.9328C17.3338 11.876 16.6554 12.7829 15.7749 13.6535C15.0912 14.3375 14.2781 15.0061 13.3355 15.659C12.8072 16.0218 12.1132 16.4571 11.2535 16.965L10.8806 17.1826L10.5077 16.965C9.60651 16.4364 8.88143 15.9803 8.33244 15.5968C7.34839 14.9128 6.50419 14.208 5.79982 13.4825C4.90901 12.5496 4.23572 11.5857 3.77995 10.5907L2.33496 10.5752V9.02051L3.28275 9.03605C3.16881 8.51783 3.11184 7.99441 3.11184 7.46582C3.11184 6.58483 3.30864 5.78158 3.70226 5.05606C4.07516 4.36163 4.5879 3.8123 5.24047 3.40809C5.89305 3.00387 6.60777 2.80176 7.38465 2.80176C8.05794 2.80176 8.72605 2.96759 9.38899 3.29926C9.94834 3.56874 10.4455 3.92113 10.8806 4.35645C11.3156 3.92113 11.8128 3.56874 12.3722 3.29926C13.0351 2.96759 13.7032 2.80176 14.3765 2.80176ZM14.3765 4.35645C13.9622 4.35645 13.5427 4.4575 13.118 4.65961C12.6933 4.86172 12.3152 5.12861 11.9837 5.46027L10.8806 6.5641L9.77742 5.46027C9.44596 5.12861 9.06788 4.86172 8.64319 4.65961C8.21849 4.4575 7.79898 4.35645 7.38465 4.35645C6.88745 4.35645 6.43168 4.49119 6.01735 4.76066C5.60302 5.03014 5.27414 5.40068 5.03072 5.87227C4.7873 6.34385 4.66559 6.88022 4.66559 7.48137C4.66559 7.9996 4.73292 8.51783 4.86757 9.03605L6.56116 9.02051L8.16152 6.34645L10.4921 10.2332L11.2224 9.02051H14.765V10.5752H12.0925L10.4921 13.2648L8.16152 9.37809L7.43126 10.5752L5.52015 10.5907C6.12093 11.6272 7.03764 12.6377 8.27029 13.6224C8.81928 14.0577 9.44596 14.4982 10.1503 14.9439C10.3678 15.0786 10.6113 15.2237 10.8806 15.3792C11.1499 15.2237 11.3933 15.0786 11.6108 14.9439C12.3152 14.4982 12.9419 14.0577 13.4909 13.6224C14.6717 12.6792 15.5626 11.7101 16.1633 10.7151C16.7848 9.67866 17.0956 8.60074 17.0956 7.48137C17.0956 6.88022 16.9765 6.34126 16.7382 5.86449C16.5 5.38772 16.1737 5.01978 15.7594 4.76066C15.345 4.50155 14.8841 4.36681 14.3765 4.35645Z" fill="#FF9B9B"/>
</svg>
