<svg width="16" height="14" viewBox="0 0 16 14" fill="none" xmlns="http://www.w3.org/2000/svg">
<path d="M2.74401 1.75H13.2403C13.4035 1.75 13.5415 1.80639 13.6543 1.91917C13.767 2.03194 13.8234 2.17 13.8234 2.33333V11.6667C13.8234 11.83 13.767 11.9681 13.6543 12.0808C13.5415 12.1936 13.4035 12.25 13.2403 12.25H2.74401C2.58074 12.25 2.44273 12.1936 2.32999 12.0808C2.21726 11.9681 2.16089 11.83 2.16089 11.6667V2.33333C2.16089 2.17 2.21726 2.03194 2.32999 1.91917C2.44273 1.80639 2.58074 1.75 2.74401 1.75ZM12.6571 4.22333L8.03879 8.365L3.32714 4.21167V11.0833H12.6571V4.22333ZM3.63036 2.91667L8.02713 6.80167L12.3656 2.91667H3.63036Z" fill="#FF9B9B"/>
</svg>
