<svg width="23" height="22" viewBox="0 0 23 22" fill="none" xmlns="http://www.w3.org/2000/svg">
<path d="M15.3676 16.11L19.5501 20.275L20.7751 19.05L3.4501 1.725L2.2251 2.95L7.1251 7.8675V9.25C7.1251 10.0433 7.32051 10.7754 7.71135 11.4462C8.10218 12.1171 8.63301 12.6479 9.30385 13.0388C9.97468 13.4296 10.7068 13.625 11.5001 13.625C11.9201 13.625 12.3284 13.5667 12.7251 13.45L14.0726 14.815C13.2559 15.1883 12.3984 15.375 11.5001 15.375C10.4851 15.375 9.53426 15.1417 8.6476 14.675C7.78426 14.22 7.06968 13.5929 6.50385 12.7937C5.93801 11.9946 5.5851 11.105 5.4451 10.125H3.6776C3.80593 11.3267 4.19676 12.4408 4.8501 13.4675C5.4801 14.4592 6.29093 15.27 7.2826 15.9C8.30926 16.5533 9.42343 16.9442 10.6251 17.0725V20.625H12.3751V17.0725C13.4368 16.9558 14.4343 16.635 15.3676 16.11ZM11.1151 11.84C10.5434 11.7583 10.0534 11.5133 9.6451 11.105C9.23676 10.6967 8.99176 10.2067 8.9101 9.635L11.1151 11.84ZM17.9576 13.765L16.6976 12.505C17.1526 11.77 17.4384 10.9767 17.5551 10.125H19.3226C19.1826 11.455 18.7276 12.6683 17.9576 13.765ZM15.4026 11.2275L14.0551 9.8625C14.1018 9.66417 14.1251 9.46 14.1251 9.25V5.75C14.1251 5.27167 14.0084 4.83125 13.7751 4.42875C13.5418 4.02625 13.2238 3.70833 12.8213 3.475C12.4188 3.24167 11.9784 3.125 11.5001 3.125C10.9401 3.125 10.4355 3.28542 9.98635 3.60625C9.53718 3.92708 9.21926 4.33833 9.0326 4.84L7.7201 3.545C8.1051 2.88 8.63301 2.35208 9.30385 1.96125C9.97468 1.57042 10.7068 1.375 11.5001 1.375C12.2934 1.375 13.0255 1.57042 13.6963 1.96125C14.3672 2.35208 14.898 2.88292 15.2888 3.55375C15.6797 4.22458 15.8751 4.95667 15.8751 5.75V9.25C15.8751 9.95 15.7176 10.6092 15.4026 11.2275Z" fill="#374151"/>
</svg>
