<svg width="23" height="22" viewBox="0 0 23 22" fill="none" xmlns="http://www.w3.org/2000/svg">
<path d="M6.775 9.25001L9.75 6.81751V15.1825L6.775 12.75H3.625V9.25001H6.775ZM2.75 14.5H6.145L10.7825 18.2975C10.8642 18.3558 10.9604 18.385 11.0712 18.385C11.1821 18.385 11.2812 18.3442 11.3687 18.2625C11.4563 18.1808 11.5 18.0758 11.5 17.9475V4.05251C11.5 3.94751 11.465 3.85126 11.395 3.76376C11.325 3.67626 11.2288 3.62668 11.1062 3.61501C10.9838 3.60334 10.8758 3.63251 10.7825 3.70251L6.145 7.50001H2.75C2.505 7.50001 2.29792 7.58459 2.12875 7.75376C1.95958 7.92293 1.875 8.13001 1.875 8.37501V13.625C1.875 13.87 1.95958 14.0771 2.12875 14.2463C2.29792 14.4154 2.505 14.5 2.75 14.5ZM21.125 11C21.125 12.4117 20.8333 13.7533 20.25 15.025C19.6783 16.2617 18.8792 17.3292 17.8525 18.2275L16.61 16.985C17.4733 16.25 18.1442 15.375 18.6225 14.36C19.1242 13.2983 19.375 12.1783 19.375 11C19.375 9.82168 19.1242 8.70168 18.6225 7.64001C18.1442 6.62501 17.4733 5.75001 16.61 5.01501L17.8525 3.77251C18.8792 4.67084 19.6783 5.73834 20.25 6.97501C20.8333 8.24668 21.125 9.58834 21.125 11ZM16.75 11C16.75 10.1833 16.5692 9.40751 16.2075 8.67251C15.8575 7.96084 15.3733 7.36001 14.755 6.87001L13.495 8.13001C13.9617 8.44501 14.3292 8.85626 14.5975 9.36376C14.8658 9.87126 15 10.4167 15 11C15 11.5833 14.8658 12.1288 14.5975 12.6363C14.3292 13.1438 13.9617 13.555 13.495 13.87L14.755 15.13C15.3733 14.64 15.8575 14.0392 16.2075 13.3275C16.5692 12.5925 16.75 11.8167 16.75 11Z" fill="#374151"/>
</svg>
