<svg width="22" height="21" viewBox="0 0 22 21" fill="none" xmlns="http://www.w3.org/2000/svg">
<path d="M3.3523 6.5625C3.83064 5.6175 4.46647 4.78042 5.2598 4.05125C6.05314 3.32208 6.95147 2.75917 7.9548 2.3625C8.98147 1.95417 10.0548 1.75 11.1748 1.75C12.3298 1.75 13.409 1.95417 14.4123 2.3625C15.3806 2.7475 16.2556 3.30167 17.0373 4.025L14.5173 6.545C14.0623 6.11333 13.5519 5.78667 12.9861 5.565C12.4202 5.34333 11.8165 5.2325 11.1748 5.2325C10.4281 5.2325 9.71647 5.39 9.0398 5.705C8.39814 6.00833 7.83522 6.43417 7.35105 6.9825C6.86689 7.53083 6.50814 8.14917 6.2748 8.8375C6.0998 9.38583 6.0123 9.94 6.0123 10.5C6.0123 11.06 6.0998 11.6142 6.2748 12.1625C6.50814 12.8508 6.86689 13.4692 7.35105 14.0175C7.83522 14.5658 8.39814 14.9917 9.0398 15.295C9.71647 15.61 10.4281 15.7675 11.1748 15.7675C12.3181 15.7675 13.304 15.4875 14.1323 14.9275C14.599 14.6242 14.9811 14.245 15.2786 13.79C15.5761 13.335 15.7773 12.8333 15.8823 12.285H11.1748V8.9075H19.4173C19.5223 9.49083 19.5748 10.0858 19.5748 10.6925C19.5748 12.0108 19.3502 13.2213 18.9011 14.3238C18.4519 15.4262 17.8073 16.3625 16.9673 17.1325C16.2323 17.8092 15.3806 18.3283 14.4123 18.69C13.4206 19.0633 12.3415 19.25 11.1748 19.25C10.0548 19.25 8.98147 19.0458 7.9548 18.6375C6.95147 18.2408 6.05314 17.6779 5.2598 16.9488C4.46647 16.2196 3.83064 15.3825 3.3523 14.4375C2.73397 13.2008 2.4248 11.8883 2.4248 10.5C2.4248 9.11167 2.73397 7.79917 3.3523 6.5625Z" fill="#959EAE"/>
</svg>
