<svg width="22" height="21" viewBox="0 0 22 21" fill="none" xmlns="http://www.w3.org/2000/svg">
<path d="M11 2.065C12.2483 2.065 13.4383 2.25167 14.57 2.625C15.6783 2.98667 16.6554 3.49708 17.5013 4.15625C18.3471 4.81542 19.0033 5.57083 19.47 6.4225C19.9483 7.32083 20.1875 8.25417 20.1875 9.2225C20.1875 10.1908 19.9483 11.1183 19.47 12.005C19.0033 12.8567 18.3471 13.615 17.5013 14.28C16.6554 14.945 15.6783 15.4583 14.57 15.82C13.4383 16.1933 12.2483 16.38 11 16.38C10.4983 16.38 9.99667 16.345 9.495 16.275L5.6275 18.8125C5.40583 18.9292 5.26 18.9642 5.19 18.9175C5.12 18.8708 5.13167 18.7133 5.225 18.445L5.995 15.225C4.71167 14.5717 3.7025 13.7258 2.9675 12.6875C2.1975 11.6142 1.8125 10.4592 1.8125 9.2225C1.8125 8.25417 2.05167 7.32083 2.53 6.4225C2.99667 5.57083 3.65292 4.81542 4.49875 4.15625C5.34458 3.49708 6.32167 2.98667 7.43 2.625C8.56167 2.25167 9.75167 2.065 11 2.065ZM16.1625 9.1L17.4575 7.8575C17.5392 7.7875 17.58 7.69417 17.58 7.5775C17.58 7.46083 17.5421 7.36167 17.4663 7.28C17.3904 7.19833 17.2942 7.1575 17.1775 7.1575C17.0608 7.1575 16.9617 7.1925 16.88 7.2625L15.2 8.9075V7.56C15.2 7.44333 15.1592 7.34417 15.0775 7.2625C14.9958 7.18083 14.8967 7.14 14.78 7.14C14.6633 7.14 14.5642 7.18083 14.4825 7.2625C14.4008 7.34417 14.36 7.44333 14.36 7.56V9.7825C14.3483 9.8525 14.3483 9.9225 14.36 9.9925V11.2525C14.36 11.3575 14.4008 11.4508 14.4825 11.5325C14.5642 11.6142 14.6633 11.655 14.78 11.655C14.8967 11.655 14.9958 11.6142 15.0775 11.5325C15.1592 11.4508 15.2 11.3575 15.2 11.2525V10.045L15.5675 9.695L16.81 11.4625C16.8917 11.5792 17.0083 11.6375 17.16 11.6375C17.2417 11.6375 17.3175 11.6142 17.3875 11.5675C17.4808 11.4975 17.5392 11.4071 17.5625 11.2962C17.5858 11.1854 17.5625 11.0833 17.4925 10.99L16.1625 9.1ZM13.5725 10.7975H12.295V7.56C12.295 7.455 12.2571 7.36167 12.1812 7.28C12.1054 7.19833 12.0092 7.1575 11.8925 7.1575C11.7758 7.1575 11.6767 7.19833 11.595 7.28C11.5133 7.36167 11.4725 7.455 11.4725 7.56V11.2C11.4725 11.3167 11.5133 11.4158 11.595 11.4975C11.6767 11.5792 11.7758 11.62 11.8925 11.62H13.5725C13.6892 11.62 13.7883 11.5792 13.87 11.4975C13.9517 11.4158 13.9925 11.3196 13.9925 11.2088C13.9925 11.0979 13.9517 11.0017 13.87 10.92C13.7883 10.8383 13.6892 10.7975 13.5725 10.7975ZM8.4625 9.835L9.0575 8.3475L9.6175 9.835H8.4625ZM10.6675 10.2725C10.6675 10.2608 10.6675 10.255 10.6675 10.255C10.6675 10.15 10.6267 10.0567 10.545 9.975L9.635 7.525C9.6 7.39667 9.53 7.29458 9.425 7.21875C9.32 7.14292 9.20625 7.105 9.08375 7.105C8.96125 7.105 8.85042 7.14 8.75125 7.21C8.65208 7.28 8.57333 7.37333 8.515 7.49L7.0625 11.06C7.01583 11.165 7.01583 11.27 7.0625 11.375C7.10917 11.48 7.185 11.5558 7.29 11.6025C7.395 11.6492 7.5 11.6492 7.605 11.6025C7.71 11.5558 7.78583 11.48 7.8325 11.375L8.1125 10.6575H9.9325L10.195 11.3575C10.2183 11.4392 10.2679 11.5062 10.3438 11.5588C10.4196 11.6112 10.4983 11.6375 10.58 11.6375C10.6267 11.6375 10.6733 11.6258 10.72 11.6025C10.825 11.5675 10.9008 11.4975 10.9475 11.3925C10.9942 11.2875 11 11.1825 10.965 11.0775L10.6675 10.2725ZM7.7625 7.5775C7.7625 7.46083 7.72167 7.36167 7.64 7.28C7.55833 7.19833 7.45917 7.1575 7.3425 7.1575H4.5075C4.39083 7.1575 4.29167 7.19833 4.21 7.28C4.12833 7.36167 4.0875 7.45792 4.0875 7.56875C4.0875 7.67958 4.12833 7.77583 4.21 7.8575C4.29167 7.93917 4.39083 7.98 4.5075 7.98H5.5225V11.2525C5.5225 11.3692 5.56333 11.4683 5.645 11.55C5.72667 11.6317 5.82292 11.6725 5.93375 11.6725C6.04458 11.6725 6.14083 11.6317 6.2225 11.55C6.30417 11.4683 6.345 11.3692 6.345 11.2525V7.98H7.3425C7.45917 7.98 7.55833 7.93917 7.64 7.8575C7.72167 7.77583 7.7625 7.6825 7.7625 7.5775Z" fill="black"/>
</svg>
