<svg width="59" height="56" viewBox="0 0 59 56" fill="none" xmlns="http://www.w3.org/2000/svg">
<path d="M29.1643 39.6666C30.8441 39.6666 32.3995 39.2466 33.8305 38.4066C35.2615 37.5666 36.3969 36.431 37.2369 34.9999C38.0768 33.5688 38.4968 32.0133 38.4968 30.3333H33.8305C33.8305 31.1733 33.6205 31.951 33.2006 32.6666C32.7806 33.3821 32.2129 33.9499 31.4974 34.3699C30.7819 34.7899 30.0042 34.9999 29.1643 34.9999C28.3243 34.9999 27.5466 34.7899 26.8311 34.3699C26.1156 33.9499 25.5479 33.3821 25.128 32.6666C24.708 31.951 24.498 31.1733 24.498 30.3333H19.8318C19.8318 32.0133 20.2517 33.5688 21.0916 34.9999C21.9316 36.431 23.067 37.5666 24.498 38.4066C25.929 39.2466 27.4844 39.6666 29.1643 39.6666ZM16.3321 4.66658C14.4345 4.66658 12.6846 5.14103 11.0825 6.08992C9.48046 7.03881 8.20502 8.31436 7.25621 9.91658C6.30741 11.5188 5.83301 13.2688 5.83301 15.1666C5.83301 16.7221 6.15187 18.1844 6.78959 19.5533C7.42731 20.9221 8.30612 22.1044 9.42602 23.0999C8.5861 25.4333 8.16613 27.8444 8.16613 30.3333C8.16613 34.1288 9.11494 37.6599 11.0125 40.9266C12.879 44.0999 15.3988 46.6199 18.5719 48.4866C21.8382 50.3844 25.369 51.3333 29.1643 51.3333C32.9595 51.3333 36.4903 50.3844 39.7566 48.4866C42.9297 46.6199 45.4495 44.0999 47.316 40.9266C49.2136 37.6599 50.1624 34.1288 50.1624 30.3333C50.1624 27.8444 49.7424 25.4333 48.9025 23.0999C50.0224 22.1044 50.9012 20.9221 51.5389 19.5533C52.1766 18.1844 52.4955 16.7221 52.4955 15.1666C52.4955 13.2688 52.0211 11.5188 51.0723 9.91658C50.1235 8.31436 48.8481 7.03881 47.246 6.08992C45.6439 5.14103 43.9018 4.66658 42.0198 4.66658C40.1377 4.66658 38.4034 5.11769 36.8169 6.01992C35.2304 6.92214 33.9705 8.15103 33.0372 9.70658C31.7618 9.4577 30.4708 9.33325 29.1643 9.33325C27.8577 9.33325 26.5667 9.4577 25.2913 9.70658C24.358 8.15103 23.0981 6.92214 21.5116 6.01992C19.9251 5.11769 18.1986 4.66658 16.3321 4.66658ZM10.4993 15.1666C10.4993 14.1088 10.7637 13.1366 11.2925 12.2499C11.8214 11.3633 12.5291 10.6555 13.4157 10.1266C14.3023 9.59769 15.2744 9.33325 16.3321 9.33325C17.5764 9.33325 18.6963 9.69103 19.6918 10.4066C20.6872 11.1221 21.4027 12.0399 21.8382 13.1599L22.5382 15.2133L24.638 14.6066C26.1001 14.2021 27.6088 13.9999 29.1643 13.9999C30.7197 13.9999 32.2284 14.2021 33.6905 14.6066L35.7903 15.2133L36.4903 13.1599C36.9258 12.0399 37.6413 11.1221 38.6367 10.4066C39.6322 9.69103 40.7521 9.33325 41.9964 9.33325C43.0541 9.33325 44.0263 9.59769 44.9128 10.1266C45.7994 10.6555 46.5072 11.3633 47.036 12.2499C47.5648 13.1366 47.8293 14.1088 47.8293 15.1666C47.8293 16.2244 47.5571 17.2121 47.0127 18.1299C46.4683 19.0477 45.745 19.7555 44.8429 20.2533L42.9764 21.3266L43.9096 23.2866C44.9673 25.4955 45.4961 27.8444 45.4961 30.3333C45.4961 33.2888 44.7495 36.0421 43.2563 38.5933C41.8253 41.051 39.8811 42.9955 37.4235 44.4266C34.8726 45.9199 32.1195 46.6666 29.1643 46.6666C26.209 46.6666 23.4559 45.9199 20.905 44.4266C18.4474 42.9955 16.5032 41.051 15.0722 38.5933C13.579 36.0421 12.8324 33.2888 12.8324 30.3333C12.8324 27.8444 13.3612 25.4955 14.4189 23.2866L15.3522 21.3266L13.4857 20.2533C12.5835 19.7555 11.8602 19.0477 11.3159 18.1299C10.7715 17.2121 10.4993 16.2244 10.4993 15.1666Z" fill="#FF9B9B"/>
</svg>