<svg width="18" height="19" viewBox="0 0 18 19" fill="none" xmlns="http://www.w3.org/2000/svg">
<path d="M9 18.25C7.81 18.25 6.6725 18.0225 5.5875 17.5675C4.54917 17.1242 3.62458 16.4971 2.81375 15.6862C2.00292 14.8754 1.37583 13.9508 0.9325 12.9125C0.4775 11.8275 0.25 10.69 0.25 9.5C0.25 8.31 0.4775 7.1725 0.9325 6.0875C1.37583 5.04917 2.00292 4.12458 2.81375 3.31375C3.62458 2.50292 4.54917 1.87583 5.5875 1.4325C6.6725 0.977499 7.81 0.75 9 0.75C10.19 0.75 11.3275 0.977499 12.4125 1.4325C13.4508 1.87583 14.3754 2.50292 15.1862 3.31375C15.9971 4.12458 16.6242 5.04917 17.0675 6.0875C17.5225 7.1725 17.75 8.31 17.75 9.5C17.75 10.69 17.5225 11.8275 17.0675 12.9125C16.6242 13.9508 15.9971 14.8754 15.1862 15.6862C14.3754 16.4971 13.4508 17.1242 12.4125 17.5675C11.3275 18.0225 10.19 18.25 9 18.25ZM9 16.5C10.2717 16.5 11.45 16.1792 12.535 15.5375C13.585 14.9192 14.4192 14.085 15.0375 13.035C15.6792 11.95 16 10.7717 16 9.5C16 8.22833 15.6792 7.05 15.0375 5.965C14.4192 4.915 13.585 4.08083 12.535 3.4625C11.45 2.82083 10.2717 2.5 9 2.5C7.72833 2.5 6.55 2.82083 5.465 3.4625C4.415 4.08083 3.58083 4.915 2.9625 5.965C2.32083 7.05 2 8.22833 2 9.5C2 10.7717 2.32083 11.95 2.9625 13.035C3.58083 14.085 4.415 14.9192 5.465 15.5375C6.55 16.1792 7.72833 16.5 9 16.5Z" fill="white"/>
</svg>
