<svg width="59" height="60" viewBox="0 0 59 60" fill="none" xmlns="http://www.w3.org/2000/svg">
<path d="M45.5315 0.833355C47.9033 0.833355 50.0905 1.42641 52.093 2.61252C54.0955 3.79863 55.6897 5.39307 56.8757 7.39585C58.0616 9.39863 58.6546 11.5861 58.6546 13.9584C58.6546 15.9028 58.256 17.7306 57.4589 19.4417C56.6618 21.1528 55.5634 22.6306 54.1636 23.875C55.2134 26.7917 55.7383 29.8056 55.7383 32.9167C55.7383 37.6611 54.5524 42.075 52.1805 46.1584C49.8475 50.125 46.698 53.275 42.7319 55.6084C38.6491 57.9806 34.2359 59.1667 29.4921 59.1667C24.7483 59.1667 20.3351 57.9806 16.2523 55.6084C12.2862 53.275 9.13666 50.125 6.80366 46.1584C4.43178 42.075 3.24584 37.6611 3.24584 32.9167C3.24584 29.8056 3.77076 26.7917 4.82061 23.875C3.42081 22.6306 2.32236 21.1528 1.52525 19.4417C0.728144 17.7306 0.32959 15.9028 0.32959 13.9584C0.32959 11.5861 0.922561 9.39863 2.1085 7.39585C3.29444 5.39307 4.88866 3.79863 6.89115 2.61252C8.89364 1.42641 11.0711 0.833355 13.4236 0.833355C15.776 0.833355 17.9437 1.39724 19.9268 2.52502C21.9098 3.6528 23.4846 5.18891 24.6511 7.13335C26.2453 6.82224 27.859 6.66669 29.4921 6.66669C31.1252 6.66669 32.7388 6.82224 34.3331 7.13335C35.4996 5.18891 37.0743 3.6528 39.0574 2.52502C41.0404 1.39724 43.1985 0.833355 45.5315 0.833355ZM23.6596 32.9167H17.8271C17.8271 35.0167 18.352 36.9611 19.4019 38.75C20.4517 40.5389 21.871 41.9584 23.6596 43.0084C25.4482 44.0584 27.3924 44.5834 29.4921 44.5834C31.5918 44.5834 33.536 44.0584 35.3246 43.0084C37.1132 41.9584 38.5325 40.5389 39.5823 38.75C40.6322 36.9611 41.1571 35.0167 41.1571 32.9167H35.3246C35.3246 33.9667 35.0621 34.9389 34.5372 35.8334C34.0123 36.7278 33.3027 37.4375 32.4083 37.9625C31.514 38.4875 30.5419 38.75 29.4921 38.75C28.4422 38.75 27.4702 38.4875 26.5758 37.9625C25.6815 37.4375 24.9719 36.7278 24.447 35.8334C23.9221 34.9389 23.6596 33.9667 23.6596 32.9167Z" fill="#FF8A8A"/>
</svg>
