<svg width="19" height="16" viewBox="0 0 19 16" fill="none" xmlns="http://www.w3.org/2000/svg">
<path d="M11.0459 15.96L8.87066 13.2393H4.83091C4.61338 13.2393 4.42952 13.1641 4.27933 13.0138C4.12913 12.8635 4.05403 12.6796 4.05403 12.4619V4.00441C4.05403 3.78676 4.12913 3.60279 4.27933 3.4525C4.42952 3.30221 4.61338 3.22707 4.83091 3.22707H17.2609C17.4784 3.22707 17.6623 3.30221 17.8125 3.4525C17.9627 3.60279 18.0378 3.78676 18.0378 4.00441V12.4619C18.0378 12.6796 17.9627 12.8635 17.8125 13.0138C17.6623 13.1641 17.4784 13.2393 17.2609 13.2393H13.2212L11.0459 15.96ZM12.4754 11.6846H16.484V4.78176H5.60778V11.6846H9.61646L11.0459 13.4725L12.4754 11.6846ZM1.72341 0.0244141H14.9303V1.5791H2.50028V10.1299H0.946533V0.801758C0.946533 0.594466 1.02163 0.415677 1.17183 0.26539C1.32202 0.115104 1.50588 0.0347786 1.72341 0.0244141Z" fill="current"/>
</svg>
