<svg width="15" height="16" viewBox="0 0 15 16" fill="none" xmlns="http://www.w3.org/2000/svg">
<path d="M0.500366 13.0527V2.55859C0.500366 2.13365 0.60395 1.74238 0.811116 1.3848C1.01828 1.02723 1.30055 0.744792 1.65791 0.5375C2.01527 0.330208 2.4063 0.226562 2.83099 0.226562H13.7072C13.9248 0.226562 14.1086 0.301705 14.2588 0.451992C14.409 0.602279 14.4841 0.78625 14.4841 1.00391V14.9961C14.4841 15.2138 14.409 15.3977 14.2588 15.548C14.1086 15.6983 13.9248 15.7734 13.7072 15.7734H3.21943C2.72223 15.7734 2.26646 15.6517 1.85213 15.4081C1.4378 15.1645 1.10892 14.8354 0.865497 14.4209C0.622077 14.0063 0.500366 13.5502 0.500366 13.0527ZM12.9304 14.2188V11.8867H3.21943C2.89832 11.8867 2.62382 12.0007 2.39594 12.2287C2.16806 12.4568 2.05412 12.7314 2.05412 13.0527C2.05412 13.374 2.16806 13.6487 2.39594 13.8767C2.62382 14.1047 2.89832 14.2188 3.21943 14.2188H12.9304ZM2.05412 10.5963C2.41666 10.4201 2.8051 10.332 3.21943 10.332H12.9304V1.78125H2.83099C2.61347 1.78125 2.42961 1.85639 2.27941 2.00668C2.12921 2.15697 2.05412 2.34094 2.05412 2.55859V10.5963Z" fill="current"/>
</svg>
