<svg width="21" height="20" viewBox="0 0 21 20" fill="none" xmlns="http://www.w3.org/2000/svg">
<path d="M5.83091 16.0789H15.1534V8.4298L10.4922 4.1855L5.83091 8.4298V16.0789ZM15.9303 17.6335H5.05403C4.83651 17.6335 4.65265 17.5584 4.50245 17.4081C4.35226 17.2578 4.27716 17.0739 4.27716 16.8562V9.86011H1.94653L9.96388 2.56862C10.1193 2.43388 10.2953 2.36651 10.4922 2.36651C10.689 2.36651 10.8651 2.43388 11.0204 2.56862L19.0378 9.86011H16.7072V16.8562C16.7072 17.0739 16.6321 17.2578 16.4819 17.4081C16.3317 17.5584 16.1478 17.6335 15.9303 17.6335ZM6.99622 11.4148H8.54997C8.54997 11.7672 8.63802 12.0937 8.81411 12.3942C8.9902 12.6948 9.22585 12.9306 9.52106 13.1016C9.81628 13.2726 10.14 13.3582 10.4922 13.3582C10.8443 13.3582 11.168 13.2726 11.4633 13.1016C11.7585 12.9306 11.9941 12.6948 12.1702 12.3942C12.3463 12.0937 12.4343 11.7672 12.4343 11.4148H13.9881C13.9881 12.047 13.8301 12.6326 13.5142 13.1716C13.1983 13.7106 12.7736 14.1355 12.2401 14.4464C11.7067 14.7574 11.124 14.9128 10.4922 14.9128C9.8603 14.9128 9.27764 14.7574 8.74419 14.4464C8.21074 14.1355 7.78604 13.7106 7.47011 13.1716C7.15419 12.6326 6.99622 12.047 6.99622 11.4148Z" fill="current"/>
</svg>
