<svg width="25" height="24" viewBox="0 0 25 24" fill="none" xmlns="http://www.w3.org/2000/svg">
<path d="M11.56 13.7412V15.2959C10.7209 15.2959 9.93889 15.5084 9.21381 15.9333C8.50944 16.3479 7.95009 16.9076 7.53576 17.6124C7.11107 18.3379 6.89872 19.1256 6.89872 19.9755H5.34497C5.34497 18.8458 5.62982 17.7989 6.19953 16.835C6.74852 15.8919 7.48915 15.1456 8.4214 14.5963C9.38472 14.0262 10.4309 13.7412 11.56 13.7412ZM11.56 12.9639C10.7209 12.9639 9.93889 12.7566 9.21381 12.342C8.50944 11.9274 7.95009 11.3677 7.53576 10.6629C7.11107 9.93741 6.89872 9.15229 6.89872 8.30758C6.89872 7.46286 7.11107 6.67775 7.53576 5.95223C7.95009 5.24743 8.50944 4.68775 9.21381 4.27316C9.93889 3.84822 10.7235 3.63574 11.5677 3.63574C12.4119 3.63574 13.1966 3.84822 13.9217 4.27316C14.6157 4.68775 15.1699 5.24743 15.5842 5.95223C16.0089 6.67775 16.2212 7.46286 16.2212 8.30758C16.2212 9.15229 16.0089 9.93741 15.5842 10.6629C15.1699 11.3677 14.6157 11.9274 13.9217 12.342C13.1966 12.7566 12.4094 12.9639 11.56 12.9639ZM11.56 11.4092C12.1193 11.4092 12.6372 11.2718 13.1137 10.9972C13.5902 10.7225 13.9683 10.3468 14.248 9.87004C14.5276 9.39327 14.6675 8.87245 14.6675 8.30758C14.6675 7.74271 14.5276 7.22189 14.248 6.74512C13.9683 6.26835 13.5902 5.89004 13.1137 5.6102C12.6372 5.33035 12.1193 5.19043 11.56 5.19043C11.0006 5.19043 10.4827 5.33035 10.0062 5.6102C9.52974 5.89004 9.15166 6.26835 8.87198 6.74512C8.59231 7.22189 8.45247 7.74271 8.45247 8.30758C8.45247 8.87245 8.59231 9.39327 8.87198 9.87004C9.15166 10.3468 9.52974 10.7225 10.0062 10.9972C10.4827 11.2718 11.0006 11.4092 11.56 11.4092ZM13.5798 17.488C13.5281 17.2807 13.5022 17.0708 13.5022 16.8584C13.5022 16.6459 13.5281 16.436 13.5798 16.2287L12.803 15.7779L13.5798 14.4408L14.3567 14.8761C14.6675 14.5859 15.03 14.3786 15.4443 14.2543V13.3525H16.9981V14.2543C17.4124 14.3786 17.775 14.5859 18.0857 14.8761L18.8626 14.4408L19.6395 15.7779L18.8626 16.2287C18.9144 16.436 18.9403 16.6459 18.9403 16.8584C18.9403 17.0708 18.9144 17.2807 18.8626 17.488L19.6395 17.9389L18.8626 19.2759L18.0857 18.8406C17.775 19.1308 17.4124 19.3381 16.9981 19.4625V20.3486H15.4443V19.4625C15.03 19.3381 14.6675 19.1308 14.3567 18.8406L13.5798 19.2759L12.803 17.9389L13.5798 17.488ZM16.2212 18.0166C16.5423 18.0166 16.8168 17.9052 17.0447 17.6823C17.2726 17.4595 17.3865 17.1848 17.3865 16.8584C17.3865 16.5319 17.2726 16.2572 17.0447 16.0344C16.8168 15.8115 16.5423 15.6975 16.2212 15.6923C15.9001 15.6872 15.6256 15.7986 15.3977 16.0266C15.1699 16.2546 15.0559 16.5319 15.0559 16.8584C15.0559 17.1848 15.1699 17.4621 15.3977 17.6901C15.6256 17.9181 15.9001 18.0321 16.2212 18.0321V18.0166Z" fill="current"/>
</svg>
