<svg width="30" height="28" viewBox="0 0 30 28" fill="none" xmlns="http://www.w3.org/2000/svg">
<path d="M17.5825 2.33341C19.2775 2.33341 20.848 2.76119 22.2942 3.61675C23.6937 4.44119 24.8055 5.55342 25.6297 6.95341C26.4849 8.40008 26.9125 9.97119 26.9125 11.6667C26.9125 12.9112 26.6793 14.1012 26.2128 15.2367C25.7618 16.3256 25.1204 17.2979 24.2885 18.1534C23.4565 19.009 22.5041 19.6856 21.4311 20.1834C20.9335 21.2567 20.2571 22.2095 19.4019 23.0417C18.5466 23.874 17.5747 24.5156 16.4862 24.9667C15.3511 25.4334 14.1615 25.6667 12.9175 25.6667C11.2226 25.6667 9.65202 25.239 8.20587 24.3834C6.80637 23.559 5.69455 22.4467 4.8704 21.0467C4.01515 19.6001 3.58752 18.029 3.58752 16.3334C3.58752 15.089 3.82077 13.899 4.28727 12.7634C4.73822 11.6745 5.37966 10.7023 6.21159 9.84675C7.04351 8.99119 7.99595 8.31453 9.0689 7.81675C9.5665 6.74341 10.2429 5.79064 11.0982 4.95841C11.9534 4.12619 12.9253 3.48453 14.0138 3.03341C15.1489 2.56675 16.3385 2.33341 17.5825 2.33341ZM12.9175 9.33341C11.658 9.33341 10.4839 9.6523 9.39545 10.2901C8.33805 10.9123 7.49835 11.7523 6.87635 12.8101C6.2388 13.899 5.92002 15.0734 5.92002 16.3334C5.92002 17.5934 6.2388 18.7679 6.87635 19.8567C7.49835 20.9145 8.33805 21.7545 9.39545 22.3767C10.4839 23.0145 11.658 23.3334 12.9175 23.3334C14.1771 23.3334 15.3511 23.0145 16.4396 22.3767C17.497 21.7545 18.3367 20.9145 18.9587 19.8567C19.5962 18.7679 19.915 17.5934 19.915 16.3334C19.915 15.0734 19.5962 13.899 18.9587 12.8101C18.3367 11.7523 17.497 10.9123 16.4396 10.2901C15.3511 9.6523 14.1771 9.33341 12.9175 9.33341ZM14.0838 10.5001V11.6667H16.4163V14.0001H11.7513C11.5958 14.0001 11.4597 14.0584 11.3431 14.1751C11.2265 14.2917 11.1681 14.424 11.1681 14.5717C11.1681 14.7195 11.2148 14.8479 11.3081 14.9567C11.4014 15.0656 11.518 15.1356 11.658 15.1667H11.7513H14.0838C14.6125 15.1667 15.0984 15.299 15.5416 15.5634C15.9848 15.8279 16.3385 16.1817 16.6029 16.6251C16.8672 17.0684 16.9994 17.5545 16.9994 18.0834C16.9994 18.6123 16.8672 19.0984 16.6029 19.5417C16.3385 19.9851 15.9848 20.339 15.5416 20.6034C15.0984 20.8679 14.6125 21.0001 14.0838 21.0001V22.1667H11.7513V21.0001H9.41877V18.6667H14.0838C14.2393 18.6667 14.3753 18.6084 14.492 18.4917C14.6086 18.3751 14.6669 18.2429 14.6669 18.0951C14.6669 17.9473 14.6202 17.819 14.5269 17.7101C14.4336 17.6012 14.317 17.5312 14.1771 17.5001H14.0838H11.7513C11.2226 17.5001 10.7366 17.3679 10.2935 17.1034C9.85029 16.839 9.49652 16.4851 9.23217 16.0417C8.96782 15.5984 8.83565 15.1123 8.83565 14.5834C8.83565 14.0545 8.96782 13.5684 9.23217 13.1251C9.49652 12.6817 9.85029 12.3279 10.2935 12.0634C10.7366 11.799 11.2226 11.6667 11.7513 11.6667V10.5001H14.0838ZM17.5825 4.66675C16.5562 4.66675 15.5921 4.87286 14.6902 5.28508C13.7883 5.6973 13.0108 6.27675 12.3577 7.02341C12.5443 7.00786 12.7309 7.00008 12.9175 7.00008C14.6125 7.00008 16.183 7.42786 17.6292 8.28341C19.0287 9.10786 20.1405 10.2201 20.9646 11.6201C21.8199 13.0667 22.2475 14.6379 22.2475 16.3334C22.2475 16.5201 22.2397 16.7067 22.2242 16.8934C22.9706 16.2401 23.5498 15.4623 23.9619 14.5601C24.374 13.6579 24.58 12.6934 24.58 11.6667C24.58 10.4067 24.2612 9.2323 23.6237 8.14342C23.0017 7.08564 22.162 6.24564 21.1046 5.62341C20.0161 4.98564 18.8421 4.66675 17.5825 4.66675Z" fill="#EAB308"/>
</svg>
