<svg width="30" height="28" viewBox="0 0 30 28" fill="none" xmlns="http://www.w3.org/2000/svg">
<path d="M7.75252 3.5C9.08982 3.5 10.3416 3.80333 11.5078 4.41C12.643 5.00111 13.5954 5.82167 14.3652 6.87167C15.1349 7.92167 15.6208 9.09222 15.823 10.3833C16.5227 9.68333 17.3235 9.13889 18.2254 8.75C19.1584 8.36111 20.1381 8.16667 21.1644 8.16667H26.4125V11.0833C26.4125 12.4522 26.0704 13.7278 25.3862 14.91C24.7176 16.0611 23.8079 16.9711 22.6572 17.64C21.4754 18.3244 20.2003 18.6667 18.8319 18.6667H15.9163V24.5H13.5838V15.1667H11.2513C9.77402 15.1667 8.39785 14.7933 7.12275 14.0467C5.8943 13.3311 4.92242 12.3589 4.20712 11.13C3.46072 9.85444 3.08752 8.47778 3.08752 7V3.5H7.75252ZM24.08 10.5H21.1644C20.2158 10.5 19.3412 10.7372 18.5403 11.2117C17.7395 11.6861 17.102 12.3239 16.6277 13.125C16.1534 13.9261 15.9163 14.8011 15.9163 15.75V16.3333H18.8319C19.7804 16.3333 20.6551 16.0961 21.456 15.6217C22.2568 15.1472 22.8943 14.5094 23.3686 13.7083C23.8429 12.9072 24.08 12.0322 24.08 11.0833V10.5ZM7.75252 5.83333H5.42002V7C5.42002 8.05778 5.68049 9.03389 6.20141 9.92833C6.72234 10.8228 7.42986 11.5306 8.32399 12.0517C9.21811 12.5728 10.1939 12.8333 11.2513 12.8333H13.5838V11.6667C13.5838 10.6089 13.3233 9.63278 12.8024 8.73833C12.2815 7.84389 11.5739 7.13611 10.6798 6.615C9.78569 6.09389 8.80992 5.83333 7.75252 5.83333Z" fill="#29C376"/>
</svg>
