<svg width="15" height="18" viewBox="0 0 15 18" fill="none" xmlns="http://www.w3.org/2000/svg">
<path d="M2.50724 3.24766V10.3837C2.50724 10.9123 2.62895 11.4046 2.87237 11.8606C3.11579 12.3167 3.45503 12.6898 3.89008 12.98L7.94537 15.6852L12.0007 12.98C12.4357 12.6898 12.7749 12.3167 13.0184 11.8606C13.2618 11.4046 13.3835 10.9123 13.3835 10.3837V3.24766L7.94537 2.035L2.50724 3.24766ZM1.55945 1.86398L7.94537 0.449219L14.3313 1.86398C14.5074 1.90544 14.6524 1.99872 14.7663 2.14383C14.8803 2.28893 14.9372 2.44958 14.9372 2.62578V10.3837C14.9372 11.1714 14.7534 11.9073 14.3857 12.5913C14.0179 13.2754 13.5078 13.8351 12.8552 14.2704L7.94537 17.5508L3.03552 14.2704C2.38294 13.8351 1.87279 13.2754 1.50507 12.5913C1.13735 11.9073 0.953491 11.1714 0.953491 10.3837V2.62578C0.953491 2.44958 1.01046 2.28893 1.1244 2.14383C1.23835 1.99872 1.38336 1.90544 1.55945 1.86398ZM7.94537 10.166L5.66135 11.3631L6.0964 8.82898L4.24744 7.02555L6.81113 6.65242L7.94537 4.33594L9.0796 6.65242L11.6433 7.02555L9.79433 8.82898L10.2294 11.3631L7.94537 10.166Z" fill="#7CB342"/>
</svg>
