<svg width="17" height="16" viewBox="0 0 17 16" fill="none" xmlns="http://www.w3.org/2000/svg">
<path d="M8.73115 0.226562C9.7877 0.226562 10.7976 0.428672 11.761 0.832891C12.6829 1.22674 13.5038 1.78384 14.2237 2.50418C14.9436 3.22452 15.5003 4.04591 15.8939 4.96836C16.2979 5.93227 16.4999 6.94281 16.4999 8C16.4999 9.05719 16.2979 10.0677 15.8939 11.0316C15.5003 11.9541 14.9436 12.7755 14.2237 13.4958C13.5038 14.2162 12.6829 14.7733 11.761 15.1671C10.7976 15.5713 9.7877 15.7734 8.73115 15.7734C7.6746 15.7734 6.66466 15.5713 5.70134 15.1671C4.77945 14.7733 3.95855 14.2162 3.23865 13.4958C2.51874 12.7755 1.96198 11.9541 1.56836 11.0316C1.16439 10.0677 0.962402 9.05719 0.962402 8H2.51615C2.51615 9.12974 2.80101 10.1766 3.37071 11.1405C3.91971 12.0733 4.66033 12.8143 5.59258 13.3637C6.5559 13.9337 7.60209 14.2188 8.73115 14.2188C9.86021 14.2188 10.9064 13.9337 11.8697 13.3637C12.802 12.8143 13.5426 12.0733 14.0916 11.1405C14.6613 10.1766 14.9462 9.12974 14.9462 8C14.9462 6.87026 14.6613 5.82344 14.0916 4.85953C13.5426 3.92672 12.802 3.18565 11.8697 2.63633C10.9064 2.06628 9.86021 1.78125 8.73115 1.78125C7.68496 1.78125 6.70092 2.03 5.77903 2.5275C4.88821 3.00427 4.15795 3.66242 3.58824 4.50195H5.62365V6.05664H0.962402V1.39258H2.51615V3.33594C3.24124 2.37203 4.13723 1.61542 5.20414 1.06609C6.30212 0.506406 7.47779 0.226562 8.73115 0.226562ZM9.50803 4.11328V7.67352L12.0251 10.1921L10.9219 11.2959L7.95428 8.32648V4.11328H9.50803Z" fill="#FF9B9B"/>
</svg>
