<svg width="10" height="14" viewBox="0 0 10 14" fill="none" xmlns="http://www.w3.org/2000/svg">
<path d="M7.70465 9.00673V13.0084C7.70465 13.094 7.67549 13.164 7.61718 13.2184C7.55887 13.2728 7.49084 13.3001 7.41309 13.3001C7.35866 13.3001 7.30812 13.2884 7.26147 13.2651L4.78902 11.7834L2.31657 13.2651C2.2466 13.304 2.17274 13.3137 2.09499 13.2942C2.01724 13.2748 1.95892 13.2301 1.92005 13.1601C1.88895 13.1134 1.8734 13.0628 1.8734 13.0084V9.00673C1.32915 8.57118 0.905411 8.04229 0.602186 7.42007C0.283411 6.77451 0.124023 6.09007 0.124023 5.36673C0.124023 4.51896 0.337836 3.7334 0.765461 3.01007C1.17754 2.30229 1.73345 1.74229 2.4332 1.33007C3.15627 0.910066 3.94155 0.700066 4.78902 0.700066C5.6365 0.700066 6.42177 0.910066 7.14485 1.33007C7.8446 1.74229 8.40051 2.30229 8.81259 3.01007C9.24021 3.7334 9.45402 4.51896 9.45402 5.36673C9.45402 6.09007 9.29464 6.77451 8.97586 7.42007C8.67264 8.04229 8.2489 8.57118 7.70465 9.00673ZM3.03965 9.6834V11.4684L4.78902 10.4184L6.5384 11.4684V9.6834C5.9786 9.91673 5.39547 10.0334 4.78902 10.0334C4.18257 10.0334 3.59945 9.92062 3.03965 9.69507V9.6834ZM4.78902 8.86673C5.4188 8.86673 6.00581 8.70729 6.55006 8.3884C7.07876 8.07729 7.49861 7.65729 7.80961 7.1284C8.12839 6.58396 8.28777 5.99479 8.28777 5.3609C8.28777 4.72701 8.12839 4.13784 7.80961 3.5934C7.49861 3.06451 7.07876 2.6484 6.55006 2.34507C6.00581 2.02618 5.4188 1.86673 4.78902 1.86673C4.15925 1.86673 3.57224 2.02618 3.02799 2.34507C2.49929 2.6484 2.07944 3.06451 1.76844 3.5934C1.44966 4.13784 1.29027 4.72701 1.29027 5.3609C1.29027 5.99479 1.44966 6.58396 1.76844 7.1284C2.07944 7.65729 2.49929 8.07729 3.02799 8.3884C3.57224 8.70729 4.15925 8.86673 4.78902 8.86673Z" fill="#EAB308"/>
</svg>
