<svg width="30" height="28" viewBox="0 0 30 28" fill="none" xmlns="http://www.w3.org/2000/svg">
<path d="M18.7488 2.91659C19.5885 2.91659 20.366 3.12659 21.0813 3.54659C21.7966 3.96659 22.3641 4.53436 22.784 5.24992C23.2038 5.96547 23.4138 6.74325 23.4138 7.58325C23.4138 8.42325 23.2038 9.20103 22.784 9.91658H28.0788V12.2499H25.7463V23.9166C25.7463 24.2433 25.6335 24.5194 25.4081 24.7449C25.1826 24.9705 24.9066 25.0833 24.58 25.0833H5.92001C5.59346 25.0833 5.31745 24.9705 5.09198 24.7449C4.8665 24.5194 4.75376 24.2433 4.75376 23.9166V12.2499H2.42126V9.91658H7.71604C7.29619 9.20103 7.08626 8.42325 7.08626 7.58325C7.08626 6.74325 7.29619 5.96547 7.71604 5.24992C8.13589 4.53436 8.70346 3.96659 9.41876 3.54659C10.1341 3.12659 10.9116 2.91659 11.7513 2.91659C12.4355 2.91659 13.0808 3.05659 13.6872 3.33659C14.2937 3.61658 14.8146 4.00547 15.25 4.50325C15.6854 4.00547 16.2063 3.61658 16.8128 3.33659C17.4192 3.05659 18.0646 2.91659 18.7488 2.91659ZM14.0838 12.2499H7.08626V22.7499H14.0838V12.2499ZM23.4138 12.2499H16.4163V22.7499H23.4138V12.2499ZM11.7513 5.24992C11.3314 5.24992 10.9427 5.35492 10.585 5.56492C10.2274 5.77492 9.94358 6.05881 9.73365 6.41659C9.52373 6.77436 9.41876 7.16325 9.41876 7.58325C9.41876 8.18992 9.62869 8.71881 10.0485 9.16992C10.4684 9.62103 10.9815 9.86992 11.588 9.91658H14.0838V7.58325C14.0838 7.0077 13.8933 6.50214 13.5123 6.06659C13.1313 5.63103 12.6609 5.36658 12.1011 5.27325L11.7513 5.24992ZM18.7488 5.24992C18.1423 5.24992 17.6136 5.45992 17.1627 5.87992C16.7117 6.29992 16.4629 6.81325 16.4163 7.41992V9.91658H18.7488C19.3552 9.91658 19.8839 9.70658 20.3349 9.28658C20.7858 8.86658 21.0346 8.35325 21.0813 7.74659V7.58325C21.0813 7.16325 20.9763 6.77436 20.7664 6.41659C20.5565 6.05881 20.2727 5.77492 19.915 5.56492C19.5574 5.35492 19.1686 5.24992 18.7488 5.24992Z" fill="#FB7185"/>
</svg>
